<svg id="visual" viewBox="0 0 900 900" width="900" height="900" xmlns="http://www.w3.org/2000/svg" xmlns:xlink="http://www.w3.org/1999/xlink" version="1.1"><g stroke-width="0.1" stroke-linejoin="bevel"><path d="M375 480L331 419L298 479Z" fill="#e0ceac" stroke="#000000"></path><path d="M375 480L379 387L331 419Z" fill="#ccb48b" stroke="#000000"></path><path d="M298 479L286 560L375 480Z" fill="#bea173" stroke="#000000"></path><path d="M294 265L242 376L331 419Z" fill="#c2a77b" stroke="#000000"></path><path d="M331 419L242 376L298 479Z" fill="#dbc7a3" stroke="#000000"></path><path d="M298 479L199 509L286 560Z" fill="#b99a6b" stroke="#000000"></path><path d="M242 376L199 509L298 479Z" fill="#b99a6b" stroke="#000000"></path><path d="M286 560L399 620L375 480Z" fill="#d1ba93" stroke="#000000"></path><path d="M375 480L473 358L379 387Z" fill="#ccb48b" stroke="#000000"></path><path d="M509 524L473 358L375 480Z" fill="#e5d4b4" stroke="#000000"></path><path d="M294 265L211 317L242 376Z" fill="#ccb48b" stroke="#000000"></path><path d="M480 590L509 524L375 480Z" fill="#c2a77b" stroke="#000000"></path><path d="M294 265L331 419L379 387Z" fill="#d6c19b" stroke="#000000"></path><path d="M242 376L97 491L199 509Z" fill="#d6c19b" stroke="#000000"></path><path d="M399 620L480 590L375 480Z" fill="#b99a6b" stroke="#000000"></path><path d="M473 358L436 295L379 387Z" fill="#c2a77b" stroke="#000000"></path><path d="M436 295L294 265L379 387Z" fill="#c7ae83" stroke="#000000"></path><path d="M182 642L306 664L286 560Z" fill="#d1ba93" stroke="#000000"></path><path d="M286 560L306 664L399 620Z" fill="#e5d4b4" stroke="#000000"></path><path d="M399 620L427 695L480 590Z" fill="#dbc7a3" stroke="#000000"></path><path d="M578 492L559 440L509 524Z" fill="#d1ba93" stroke="#000000"></path><path d="M509 524L559 440L473 358Z" fill="#d6c19b" stroke="#000000"></path><path d="M535 261L434 231L436 295Z" fill="#bea173" stroke="#000000"></path><path d="M294 265L269 235L211 317Z" fill="#d1ba93" stroke="#000000"></path><path d="M434 231L269 235L294 265Z" fill="#ccb48b" stroke="#000000"></path><path d="M111 576L182 642L199 509Z" fill="#c7ae83" stroke="#000000"></path><path d="M199 509L182 642L286 560Z" fill="#dbc7a3" stroke="#000000"></path><path d="M80 362L97 491L242 376Z" fill="#d1ba93" stroke="#000000"></path><path d="M640 614L578 492L509 524Z" fill="#c7ae83" stroke="#000000"></path><path d="M535 261L436 295L473 358Z" fill="#d6c19b" stroke="#000000"></path><path d="M436 295L434 231L294 265Z" fill="#bea173" stroke="#000000"></path><path d="M306 664L427 695L399 620Z" fill="#d6c19b" stroke="#000000"></path><path d="M480 590L640 614L509 524Z" fill="#d1ba93" stroke="#000000"></path><path d="M395 788L427 695L306 664Z" fill="#d1ba93" stroke="#000000"></path><path d="M97 491L111 576L199 509Z" fill="#c2a77b" stroke="#000000"></path><path d="M157 763L205 689L86 738Z" fill="#c2a77b" stroke="#000000"></path><path d="M182 642L205 689L306 664Z" fill="#d6c19b" stroke="#000000"></path><path d="M81 205L110 321L211 317Z" fill="#e0ceac" stroke="#000000"></path><path d="M211 317L110 321L242 376Z" fill="#e5d4b4" stroke="#000000"></path><path d="M110 321L80 362L242 376Z" fill="#c2a77b" stroke="#000000"></path><path d="M668 373L571 309L559 440Z" fill="#c7ae83" stroke="#000000"></path><path d="M559 440L571 309L473 358Z" fill="#c2a77b" stroke="#000000"></path><path d="M571 309L535 261L473 358Z" fill="#b49463" stroke="#000000"></path><path d="M469 822L520 704L427 695Z" fill="#c7ae83" stroke="#000000"></path><path d="M427 695L520 704L480 590Z" fill="#b99a6b" stroke="#000000"></path><path d="M157 763L267 773L205 689Z" fill="#ccb48b" stroke="#000000"></path><path d="M205 689L267 773L306 664Z" fill="#ccb48b" stroke="#000000"></path><path d="M232 128L210 161L269 235Z" fill="#bea173" stroke="#000000"></path><path d="M269 235L210 161L211 317Z" fill="#d6c19b" stroke="#000000"></path><path d="M0 285L0 443L80 362Z" fill="#dbc7a3" stroke="#000000"></path><path d="M232 128L269 235L330 86Z" fill="#e0ceac" stroke="#000000"></path><path d="M267 773L395 788L306 664Z" fill="#ccb48b" stroke="#000000"></path><path d="M0 285L80 362L110 321Z" fill="#d1ba93" stroke="#000000"></path><path d="M80 362L0 443L97 491Z" fill="#ccb48b" stroke="#000000"></path><path d="M97 491L0 534L111 576Z" fill="#c2a77b" stroke="#000000"></path><path d="M86 738L205 689L182 642Z" fill="#d1ba93" stroke="#000000"></path><path d="M571 309L572 218L535 261Z" fill="#c7ae83" stroke="#000000"></path><path d="M535 261L508 165L434 231Z" fill="#dbc7a3" stroke="#000000"></path><path d="M668 305L572 218L571 309Z" fill="#dbc7a3" stroke="#000000"></path><path d="M520 704L640 614L480 590Z" fill="#b99a6b" stroke="#000000"></path><path d="M578 492L668 373L559 440Z" fill="#d6c19b" stroke="#000000"></path><path d="M572 218L508 165L535 261Z" fill="#dbc7a3" stroke="#000000"></path><path d="M701 501L668 373L578 492Z" fill="#d1ba93" stroke="#000000"></path><path d="M0 443L0 534L97 491Z" fill="#dbc7a3" stroke="#000000"></path><path d="M330 86L269 235L434 231Z" fill="#c2a77b" stroke="#000000"></path><path d="M210 161L81 205L211 317Z" fill="#c2a77b" stroke="#000000"></path><path d="M86 738L182 642L111 576Z" fill="#d1ba93" stroke="#000000"></path><path d="M355 900L469 822L395 788Z" fill="#bea173" stroke="#000000"></path><path d="M71 124L81 205L210 161Z" fill="#d6c19b" stroke="#000000"></path><path d="M668 373L668 305L571 309Z" fill="#c2a77b" stroke="#000000"></path><path d="M682 589L701 501L578 492Z" fill="#bea173" stroke="#000000"></path><path d="M668 373L802 327L668 305Z" fill="#c2a77b" stroke="#000000"></path><path d="M668 662L682 589L640 614Z" fill="#c2a77b" stroke="#000000"></path><path d="M640 614L682 589L578 492Z" fill="#e0ceac" stroke="#000000"></path><path d="M570 817L638 673L520 704Z" fill="#c7ae83" stroke="#000000"></path><path d="M520 704L638 673L640 614Z" fill="#e5d4b4" stroke="#000000"></path><path d="M0 632L86 738L111 576Z" fill="#e0ceac" stroke="#000000"></path><path d="M436 99L330 86L434 231Z" fill="#dbc7a3" stroke="#000000"></path><path d="M524 129L436 99L508 165Z" fill="#ccb48b" stroke="#000000"></path><path d="M508 165L436 99L434 231Z" fill="#dbc7a3" stroke="#000000"></path><path d="M0 534L0 632L111 576Z" fill="#c7ae83" stroke="#000000"></path><path d="M81 205L0 285L110 321Z" fill="#d6c19b" stroke="#000000"></path><path d="M634 100L524 129L572 218Z" fill="#d1ba93" stroke="#000000"></path><path d="M572 218L524 129L508 165Z" fill="#c7ae83" stroke="#000000"></path><path d="M395 788L469 822L427 695Z" fill="#d6c19b" stroke="#000000"></path><path d="M338 900L395 788L267 773Z" fill="#c7ae83" stroke="#000000"></path><path d="M638 673L668 662L640 614Z" fill="#d1ba93" stroke="#000000"></path><path d="M682 589L758 564L701 501Z" fill="#dbc7a3" stroke="#000000"></path><path d="M660 839L668 662L638 673Z" fill="#ccb48b" stroke="#000000"></path><path d="M0 632L0 686L86 738Z" fill="#d6c19b" stroke="#000000"></path><path d="M0 686L55 767L86 738Z" fill="#ccb48b" stroke="#000000"></path><path d="M86 738L55 767L157 763Z" fill="#c2a77b" stroke="#000000"></path><path d="M195 900L338 900L267 773Z" fill="#b49463" stroke="#000000"></path><path d="M469 822L570 817L520 704Z" fill="#ccb48b" stroke="#000000"></path><path d="M232 128L71 124L210 161Z" fill="#e0ceac" stroke="#000000"></path><path d="M81 205L0 155L0 285Z" fill="#c2a77b" stroke="#000000"></path><path d="M204 0L71 124L232 128Z" fill="#e5d4b4" stroke="#000000"></path><path d="M782 738L758 564L668 662Z" fill="#d6c19b" stroke="#000000"></path><path d="M668 662L758 564L682 589Z" fill="#dbc7a3" stroke="#000000"></path><path d="M838 368L802 327L668 373Z" fill="#e5d4b4" stroke="#000000"></path><path d="M195 900L267 773L157 763Z" fill="#d6c19b" stroke="#000000"></path><path d="M469 822L465 900L570 817Z" fill="#c7ae83" stroke="#000000"></path><path d="M338 900L355 900L395 788Z" fill="#b99a6b" stroke="#000000"></path><path d="M71 124L0 155L81 205Z" fill="#e0ceac" stroke="#000000"></path><path d="M355 900L465 900L469 822Z" fill="#d6c19b" stroke="#000000"></path><path d="M144 900L195 900L157 763Z" fill="#ccb48b" stroke="#000000"></path><path d="M429 0L266 0L330 86Z" fill="#bea173" stroke="#000000"></path><path d="M330 86L266 0L232 128Z" fill="#c2a77b" stroke="#000000"></path><path d="M71 124L0 95L0 155Z" fill="#ccb48b" stroke="#000000"></path><path d="M429 0L330 86L436 99Z" fill="#d6c19b" stroke="#000000"></path><path d="M724 185L634 100L572 218Z" fill="#b49463" stroke="#000000"></path><path d="M486 0L429 0L436 99Z" fill="#d1ba93" stroke="#000000"></path><path d="M724 185L572 218L668 305Z" fill="#e5d4b4" stroke="#000000"></path><path d="M486 0L436 99L524 129Z" fill="#d6c19b" stroke="#000000"></path><path d="M900 630L806 521L758 564Z" fill="#b49463" stroke="#000000"></path><path d="M758 564L806 521L701 501Z" fill="#b49463" stroke="#000000"></path><path d="M0 686L0 797L55 767Z" fill="#bea173" stroke="#000000"></path><path d="M55 767L144 900L157 763Z" fill="#d1ba93" stroke="#000000"></path><path d="M802 327L724 185L668 305Z" fill="#ccb48b" stroke="#000000"></path><path d="M0 900L144 900L55 767Z" fill="#dbc7a3" stroke="#000000"></path><path d="M266 0L204 0L232 128Z" fill="#dbc7a3" stroke="#000000"></path><path d="M838 368L668 373L701 501Z" fill="#b49463" stroke="#000000"></path><path d="M634 100L486 0L524 129Z" fill="#e0ceac" stroke="#000000"></path><path d="M634 900L660 839L570 817Z" fill="#b49463" stroke="#000000"></path><path d="M570 817L660 839L638 673Z" fill="#e0ceac" stroke="#000000"></path><path d="M724 185L656 80L634 100Z" fill="#b49463" stroke="#000000"></path><path d="M634 100L641 0L486 0Z" fill="#d6c19b" stroke="#000000"></path><path d="M93 0L0 95L71 124Z" fill="#c2a77b" stroke="#000000"></path><path d="M806 521L838 368L701 501Z" fill="#d6c19b" stroke="#000000"></path><path d="M837 226L766 118L724 185Z" fill="#d6c19b" stroke="#000000"></path><path d="M204 0L93 0L71 124Z" fill="#bea173" stroke="#000000"></path><path d="M660 839L782 738L668 662Z" fill="#b49463" stroke="#000000"></path><path d="M806 521L900 424L838 368Z" fill="#ccb48b" stroke="#000000"></path><path d="M465 900L634 900L570 817Z" fill="#ccb48b" stroke="#000000"></path><path d="M660 839L805 828L782 738Z" fill="#d6c19b" stroke="#000000"></path><path d="M837 226L724 185L802 327Z" fill="#e0ceac" stroke="#000000"></path><path d="M724 185L766 118L656 80Z" fill="#d1ba93" stroke="#000000"></path><path d="M656 80L641 0L634 100Z" fill="#ccb48b" stroke="#000000"></path><path d="M688 0L641 0L656 80Z" fill="#bea173" stroke="#000000"></path><path d="M900 298L837 226L802 327Z" fill="#e0ceac" stroke="#000000"></path><path d="M0 797L0 900L55 767Z" fill="#ccb48b" stroke="#000000"></path><path d="M900 630L900 469L806 521Z" fill="#d6c19b" stroke="#000000"></path><path d="M838 368L900 298L802 327Z" fill="#c2a77b" stroke="#000000"></path><path d="M900 469L900 424L806 521Z" fill="#d1ba93" stroke="#000000"></path><path d="M93 0L0 0L0 95Z" fill="#b99a6b" stroke="#000000"></path><path d="M766 118L688 0L656 80Z" fill="#dbc7a3" stroke="#000000"></path><path d="M634 900L722 900L660 839Z" fill="#e5d4b4" stroke="#000000"></path><path d="M900 659L900 630L758 564Z" fill="#d1ba93" stroke="#000000"></path><path d="M900 424L900 298L838 368Z" fill="#c2a77b" stroke="#000000"></path><path d="M837 226L900 182L766 118Z" fill="#dbc7a3" stroke="#000000"></path><path d="M766 118L829 0L688 0Z" fill="#bea173" stroke="#000000"></path><path d="M900 659L758 564L782 738Z" fill="#e5d4b4" stroke="#000000"></path><path d="M722 900L805 828L660 839Z" fill="#c2a77b" stroke="#000000"></path><path d="M900 799L900 659L782 738Z" fill="#e0ceac" stroke="#000000"></path><path d="M722 900L776 900L805 828Z" fill="#d1ba93" stroke="#000000"></path><path d="M805 828L900 799L782 738Z" fill="#d1ba93" stroke="#000000"></path><path d="M900 298L900 182L837 226Z" fill="#b49463" stroke="#000000"></path><path d="M900 900L900 799L805 828Z" fill="#dbc7a3" stroke="#000000"></path><path d="M900 182L900 98L766 118Z" fill="#ccb48b" stroke="#000000"></path><path d="M900 98L829 0L766 118Z" fill="#b49463" stroke="#000000"></path><path d="M776 900L900 900L805 828Z" fill="#e5d4b4" stroke="#000000"></path><path d="M900 98L900 0L829 0Z" fill="#e5d4b4" stroke="#000000"></path></g></svg>